<?xml version="1.0" encoding="iso-8859-1"?>
<!-- Uploaded to: SVG Repo, www.svgrepo.com, Generator: SVG Repo Mixer Tools -->
<svg version="1.1" id="Layer_1" xmlns="http://www.w3.org/2000/svg" xmlns:xlink="http://www.w3.org/1999/xlink" 
	 viewBox="0 0 268.564 268.564" xml:space="preserve">
<g>
	<path style="fill:#F59D00;" d="M213.427,261.065H55.138c-11.046,0-20-8.954-20-20V27.5c0-11.046,8.954-20,20-20h158.289
		c11.046,0,20,8.954,20,20v213.565C233.427,252.11,224.472,261.065,213.427,261.065z"/>
	<rect x="65.138" y="113.282" style="fill:#FFD155;" width="138.289" height="117.782"/>
	<rect x="65.138" y="37.5" style="fill:#FFD155;" width="138.289" height="42.138"/>
	<g>
		<path style="fill:#E87E04;" d="M213.427,0H55.138c-15.163,0-27.5,12.337-27.5,27.5v213.564c0,15.163,12.337,27.5,27.5,27.5
			h158.289c15.163,0,27.5-12.337,27.5-27.5V27.5C240.927,12.337,228.59,0,213.427,0z M225.927,241.064c0,6.893-5.607,12.5-12.5,12.5
			H55.138c-6.893,0-12.5-5.607-12.5-12.5V27.5c0-6.893,5.607-12.5,12.5-12.5h158.289c6.893,0,12.5,5.607,12.5,12.5V241.064z"/>
		<path style="fill:#E87E04;" d="M203.427,105.782H65.138c-4.143,0-7.5,3.357-7.5,7.5v117.782c0,4.143,3.357,7.5,7.5,7.5h138.289
			c4.143,0,7.5-3.357,7.5-7.5V113.282C210.927,109.14,207.569,105.782,203.427,105.782z M195.927,223.564H72.638V120.782h123.289
			V223.564z"/>
		<path style="fill:#E87E04;" d="M203.427,30H65.138c-4.143,0-7.5,3.357-7.5,7.5v42.138c0,4.142,3.357,7.5,7.5,7.5h138.289
			c4.143,0,7.5-3.358,7.5-7.5V37.5C210.927,33.357,207.569,30,203.427,30z M195.927,72.138H72.638V45h123.289V72.138z"/>
		<circle style="fill:#E87E04;" cx="97.282" cy="153.673" r="13.5"/>
		<circle style="fill:#E87E04;" cx="134.282" cy="153.673" r="13.5"/>
		<circle style="fill:#E87E04;" cx="171.282" cy="153.673" r="13.5"/>
		<circle style="fill:#E87E04;" cx="97.282" cy="190.673" r="13.5"/>
		<circle style="fill:#E87E04;" cx="134.282" cy="190.673" r="13.5"/>
		<circle style="fill:#E87E04;" cx="171.282" cy="190.673" r="13.5"/>
	</g>
</g>
</svg>